# xmcd
#
# Track frame offsets:
#	150
#	16492
#	36660
#	57073
#	72104
#	92170
#	112480
#	127941
#	146913
#	164034
#
# Disc length: 2438 seconds
#
# Revision: 0
# Processed by: cddbd v1.4PL0 Copyright (c) Steve Scherf et al.
# Submitted via: dBpowerAMP V4.0
#
DISCID=9909840a
DTITLE=Mocinha de Passira e Valdir Teles - Os Grandes Repentistas do Nordeste
DYEAR=1900
DGENRE=
TTITLE0=Foi Abaixo o Império dos Machistas e outras
TTITLE1=Mãe é a Imagem Mais Santa
TTITLE2=Vida e Morte
TTITLE3=Galope Beira Mar (A criança)
TTITLE4=Frei Damião Fez da Vida - Um Instrumento de Paz
TTITLE5=Solidariedade
TTITLE6=Meu Passado Infantil Não Foi Tão Bonito
TTITLE7=Presente de Aniversário
TTITLE8=Desafio em Sextilhas Agalopada
TTITLE9=Poeta em Serenata
EXTD=
EXTT0=
EXTT1=
EXTT2=
EXTT3=
EXTT4=
EXTT5=
EXTT6=
EXTT7=
EXTT8=
EXTT9=
PLAYORDER=
